<?xml version="1.0" encoding="UTF-8" standalone="no"?>
<svg
   version="1.0"
   width="980.000000pt"
   height="939.000000pt"
   viewBox="0 0 980.000000 939.000000"
   preserveAspectRatio="xMidYMid meet"
   id="svg10"
   sodipodi:docname="logo.svg"
   inkscape:version="1.4.2 (ebf0e940d0, 2025-05-08)"
   xmlns:inkscape="http://www.inkscape.org/namespaces/inkscape"
   xmlns:sodipodi="http://sodipodi.sourceforge.net/DTD/sodipodi-0.dtd"
   xmlns="http://www.w3.org/2000/svg"
   xmlns:svg="http://www.w3.org/2000/svg">
  <defs
     id="defs10" />
  <sodipodi:namedview
     id="namedview10"
     pagecolor="#ffffff"
     bordercolor="#000000"
     borderopacity="0.25"
     inkscape:showpageshadow="2"
     inkscape:pageopacity="0.0"
     inkscape:pagecheckerboard="0"
     inkscape:deskcolor="#d1d1d1"
     inkscape:document-units="pt"
     inkscape:zoom="0.57275649"
     inkscape:cx="651.23661"
     inkscape:cy="529.8936"
     inkscape:window-width="1920"
     inkscape:window-height="923"
     inkscape:window-x="0"
     inkscape:window-y="0"
     inkscape:window-maximized="1"
     inkscape:current-layer="svg10" />
  <metadata
     id="metadata1">
Created by potrace 1.16, written by Peter Selinger 2001-2019
</metadata>
  <g
     transform="translate(0.000000,939.000000) scale(0.100000,-0.100000)"
     fill="#000000"
     stroke="none"
     id="g10">
    <path
       d="M4180 8329 c-91 -4 -226 -10 -300 -13 -299 -12 -567 -26 -605 -31 -22 -2 -78 -7 -125 -10 -117 -8 -277 -22 -524 -46 -114 -11 -220 -18 -235 -14 -14 4 -51 21 -81 40 -73 44 -91 48 -141 35 -49 -13 -95 -57 -104 -100 -5 -24 -13 -30 -43 -35 -138 -22 -357 -71 -422 -95 -172 -62 -280 -181 -310 -340 -12 -65 -13 -570 -1 -602 5 -13 5 -63 0 -118 -66 -703 -89 -1052 -71 -1064 5 -3 3 -68 -4 -146 -7 -78 -18 -216 -23 -308 -6 -92 -18 -192 -26 -222 -8 -30 -15 -88 -15 -129 0 -67 -3 -76 -30 -108 -17 -19 -30 -45 -30 -61 -1 -15 -1 -711 -2 -1547 0 -1147 2 -1532 11 -1570 44 -185 198 -335 422 -413 182 -64 820 -200 1464 -313 486 -86 1403 -227 1783 -274 123 -15 141 -15 265 0 379 47 1296 188 1782 274 644 113 1282 249 1464 313 224 78 378 228 422 413 9 38 11 423 11 1570 -1 836 -1 1532 -2 1547 0 16 -13 42 -30 61 -27 32 -30 41 -30 108 0 41 -7 99 -15 129 -8 30 -20 130 -26 222 -5 92 -16 230 -23 308 -7 78 -9 143 -4 146 18 12 -5 361 -71 1064 -5 55 -5 105 0 118 12 32 11 537 -1 602 -30 159 -138 278 -310 340 -65 24 -284 73 -422 95 -30 5 -38 11 -43 35 -9 43 -55 87 -104 100 -50 13 -68 9 -141 -35 -30 -19 -67 -36 -81 -40 -15 -4 -121 3 -235 14 -247 24 -407 38 -524 46 -47 3 -103 8 -125 10 -45 6 -325 19 -928 45 -259 11 -1167 11 -1417 -1z m-1939 -116 l33 -28 -65 -12 c-71 -12 -79 -11 -79 18 0 13 11 25 33 34 42 19 41 19 78 -12z m5394 13 c23 -10 35 -22 35 -35 0 -29 -8 -30 -79 -18 l-65 12 33 28 c38 32 33 31 76 13z m-1610 -25 c630 -31 773 -41 1190 -86 255 -27 375 -43 605 -81 346 -58 480 -126 553 -284 28 -58 31 -75 34 -180 1 -74 -1 -106 -6 -90 -5 14 -9 43 -10 66 -1 22 -13 64 -27 92 -80 161 -295 224 -1024 301 -104 11 -579 45 -865 61 -692 39 -2458 39 -3150 0 -286 -16 -761 -50 -865 -61 -489 -51 -720 -94 -869 -160 -102 -45 -180 -145 -182 -233 -1 -23 -5 -52 -10 -66 -5 -16 -7 16 -6 90 3 105 6 122 34 180 73 158 207 226 553 284 536 89 1109 141 1835 166 171 6 335 12 365 14 128 8 1643 -3 1845 -13z m-80 -281 c978 -29 1527 -69 1929 -141 271 -48 370 -95 411 -193 20 -46 13 -57 -18 -28 -32 30 -158 86 -249 111 -360 98 -1166 153 -2273 155 l-570 1 -56 -23 c-66 -27 -124 -80 -153 -142 l-21 -45 0 -1415 0 -1415 23 -44 c30 -55 64 -88 122 -115 l45 -21 1670 0 1671 0 52 27 53 27 -3 -117 -3 -117 -3675 0 -3675 0 -3 117 -3 117 53 -27 52 -27 1671 0 1670 0 45 21 c58 27 92 60 122 115 l23 44 0 1415 0 1415 -21 45 c-29 62 -87 115 -153 142 l-56 23 -570 -1 c-1107 -2 -1913 -57 -2273 -155 -91 -25 -217 -81 -249 -111 -13 -12 -25 -19 -29 -16 -8 9 24 80 49 106 132 143 849 228 2262 271 364 12 1768 12 2130 1z m-1301 -225 c22 -11 54 -37 70 -58 l31 -39 3 -261 3 -262 -763 -1 c-712 -1 -1158 -11 -1451 -34 -67 -5 -162 -12 -212 -15 -145 -10 -412 -44 -523 -66 -177 -35 -287 -81 -367 -151 l-35 -30 0 28 c0 45 30 330 45 428 11 75 20 98 52 144 71 103 173 155 403 206 302 67 899 112 1625 123 215 3 392 7 395 10 3 2 158 3 345 1 317 -3 343 -4 379 -23z m1866 9 c663 -23 1137 -64 1390 -120 230 -51 332 -103 403 -206 32 -46 41 -69 52 -144 15 -98 45 -383 45 -428 l0 -28 -35 30 c-80 70 -190 116 -367 151 -111 22 -378 56 -523 66 -49 3 -145 10 -212 15 -293 23 -739 33 -1451 34 l-763 1 3 261 3 261 28 37 c36 46 63 64 118 76 41 9 1020 4 1309 -6z m-2127 -721 l367 -6 0 -1070 c0 -1046 0 -1072 -20 -1112 -11 -22 -34 -49 -52 -60 -32 -20 -59 -20 -1653 -23 -891 -1 -1634 0 -1652 3 -47 8 -91 50 -104 98 -8 30 -8 107 0 292 13 276 48 797 56 833 6 27 55 619 55 670 0 27 11 45 55 92 31 31 82 72 115 89 102 55 302 100 582 131 246 28 923 59 1363 63 116 1 280 3 365 5 85 1 320 -1 523 -5z m2582 -19 c601 -24 887 -54 1113 -114 142 -37 216 -76 287 -150 44 -47 55 -65 55 -92 0 -51 49 -643 55 -670 8 -36 43 -557 56 -833 8 -185 8 -262 0 -292 -13 -48 -57 -90 -104 -98 -18 -3 -761 -4 -1652 -3 -1594 3 -1621 3 -1653 23 -18 11 -41 38 -52 60 -20 40 -20 66 -20 1113 l0 1072 248 3 c430 6 1304 -4 1667 -19z m1615 -3784 l0 -970 -3680 0 -3680 0 0 970 0 970 3680 0 3680 0 0 -970z m-2 -1200 c-6 -128 -31 -190 -115 -281 -80 -86 -188 -136 -413 -193 -584 -148 -1498 -313 -2725 -492 -412 -60 -438 -60 -850 0 -1227 179 -2141 344 -2725 492 -225 57 -333 107 -413 193 -84 91 -109 153 -115 281 l-4 105 3682 0 3682 0 -4 -105z"
       id="path1" />
    <path
       d="M4817 3700 c-154 -26 -285 -165 -318 -337 -31 -164 68 -352 226 -429 56 -27 68 -29 175 -29 107 0 119 2 175 29 158 77 257 265 226 429 -34 177 -163 310 -327 337 -67 11 -89 11 -157 0z m235 -77 c68 -30 135 -97 173 -174 90 -176 -15 -419 -210 -486 -64 -21 -166 -21 -230 0 -195 67 -300 310 -210 486 92 183 294 257 477 174z"
       id="path2" />
    <path
       d="M4869 3583 c-45 -104 -209 -506 -209 -513 0 -6 99 5 105 12 1 2 14 37 29 78 14 41 39 111 57 155 17 44 33 88 36 98 9 29 17 20 42 -45 13 -35 32 -81 42 -103 9 -22 28 -73 40 -112 22 -70 24 -73 58 -78 20 -4 44 -8 54 -10 9 -2 17 0 17 5 0 7 -162 404 -209 513 -11 26 -25 47 -31 47 -6 0 -20 -21 -31 -47z"
       id="path3" />
    <path
       d="M1947 3280 c-60 -15 -91 -35 -142 -92 -61 -68 -111 -173 -125 -264 -23 -146 30 -303 137 -413 84 -86 116 -94 381 -89 240 4 261 10 349 97 189 187 182 491 -14 683 -79 78 -97 82 -338 85 -115 1 -227 -2 -248 -7z m398 -58 c84 -40 157 -113 198 -200 29 -61 32 -75 32 -167 0 -92 -3 -106 -32 -167 -41 -88 -113 -160 -201 -201 -61 -29 -75 -32 -167 -32 -92 0 -106 3 -167 32 -88 41 -160 113 -201 201 -29 61 -32 75 -32 167 0 92 3 106 32 167 52 111 158 199 270 228 21 5 75 8 120 6 66 -3 95 -10 148 -34z"
       id="path4" />
    <path
       d="M2047 3186 c-71 -30 -120 -66 -157 -118 -50 -69 -63 -117 -58 -215 3 -76 9 -97 38 -151 41 -77 93 -125 176 -164 58 -27 72 -30 147 -26 135 6 236 71 300 193 29 55 32 68 32 155 0 82 -4 103 -26 150 -33 69 -95 132 -167 167 -81 39 -203 44 -285 9z m248 -86 c98 -47 165 -167 150 -268 -13 -89 -72 -173 -150 -215 -53 -28 -173 -30 -227 -4 -90 45 -147 134 -156 244 -4 54 -1 70 22 117 31 64 91 119 150 140 57 19 155 13 211 -14z"
       id="path5" />
    <path
       d="M7387 3280 c-60 -15 -91 -35 -142 -92 -61 -68 -111 -173 -125 -264 -23 -146 30 -303 137 -413 84 -86 116 -94 381 -89 240 4 261 10 349 97 189 187 182 491 -14 683 -79 78 -97 82 -338 85 -115 1 -227 -2 -248 -7z m398 -58 c312 -146 310 -587 -3 -735 -61 -29 -75 -32 -167 -32 -92 0 -106 3 -167 32 -88 41 -160 113 -201 201 -29 61 -32 75 -32 167 0 92 3 106 32 167 52 111 158 199 270 228 21 5 75 8 120 6 66 -3 95 -10 148 -34z"
       id="path6" />
    <path
       d="M7504 3192 c-100 -35 -177 -111 -215 -210 -31 -84 -24 -195 18 -277 63 -121 165 -187 300 -193 75 -4 89 -1 147 26 83 39 135 87 177 164 29 55 34 74 37 155 4 81 2 97 -21 146 -35 77 -88 132 -165 169 -84 41 -196 49 -278 20z m240 -92 c54 -26 102 -77 129 -139 52 -117 -17 -286 -141 -348 -54 -26 -174 -24 -227 4 -110 59 -172 189 -145 303 40 165 230 255 384 180z"
       id="path7" />
    <path
       d="M1401 1696 c20 -14 64 -36 100 -50 77 -32 483 -133 704 -176 88 -17 205 -39 260 -50 565 -109 1575 -267 2293 -360 138 -17 146 -17 285 0 717 93 1727 251 2292 360 55 11 172 33 260 50 221 43 627 144 704 176 36 14 80 36 100 50 l36 24 -3535 0 -3535 0 36 -24z"
       id="path8" />
    <path
       d="M761 6977 c-19 -6 -44 -25 -55 -40 -20 -28 -21 -40 -24 -445 -2 -229 0 -431 3 -448 3 -18 17 -44 32 -58 l26 -26 186 0 c156 0 190 3 210 16 49 35 51 53 51 494 0 441 -2 462 -52 493 -32 21 -329 32 -377 14z"
       id="path9" />
    <path
       d="M8774 6981 c-171 -10 -164 11 -164 -511 0 -441 2 -459 51 -494 20 -13 54 -16 209 -16 175 0 188 1 209 21 12 11 26 32 32 46 5 14 9 205 9 439 0 451 -2 465 -55 500 -31 20 -128 25 -291 15z"
       id="path10" />
  </g>
  <path
     style="fill:#ff6600;stroke-width:0.218243"
     d="m 285.34722,162.83186 c -0.36302,-0.15816 -0.7804,-0.55177 -0.92754,-0.87469 -0.36527,-0.80169 -0.33683,-2.63665 0.0525,-3.3896 0.59443,-1.14952 2.2287,-2.32865 4.84031,-3.4923 3.08857,-1.37618 4.24322,-1.56623 5.56996,-0.91678 0.86471,0.42328 7.63353,5.93297 7.76991,6.32456 0.0611,0.17528 -8.39191,1.76011 -12.38943,2.32287 -2.80492,0.39487 -4.05388,0.40146 -4.91575,0.0259 z"
     id="path12"
     transform="scale(0.75)" />
  <path
     style="fill:#ff6600;stroke-width:0.617284"
     d="m 1009.6363,161.57311 -5.4871,-0.95927 3.018,-2.64331 c 4.4806,-3.92435 5.344,-4.28896 8.1588,-3.44561 1.3084,0.39201 3.3259,1.35088 4.4833,2.13084 1.7155,1.15613 2.1043,1.81269 2.1043,3.55401 v 2.13591 l -3.3951,0.0934 c -1.8673,0.0513 -5.8642,-0.33832 -8.8822,-0.86592 z"
     id="path13"
     transform="scale(0.75)" />
</svg>
